<mxfile host="Electron" modified="2024-03-15T06:09:30.037Z" agent="Mozilla/5.0 (Windows NT 10.0; Win64; x64) AppleWebKit/537.36 (KHTML, like Gecko) draw.io/21.7.5 Chrome/114.0.5735.289 Electron/25.8.1 Safari/537.36" etag="BzyhAbN89liNGKmGnbbp" version="21.7.5" type="device">
  <diagram name="Page-1" id="So7OGq4ue8j4TGN15aNN">
    <mxGraphModel dx="2068" dy="2310" grid="1" gridSize="10" guides="1" tooltips="1" connect="1" arrows="1" fold="1" page="1" pageScale="1" pageWidth="850" pageHeight="1100" math="0" shadow="0">
      <root>
        <mxCell id="0" />
        <mxCell id="1" parent="0" />
        <mxCell id="jfZjnB6iYqrmCCpAlr42-2" value="" style="shape=umlLifeline;perimeter=lifelinePerimeter;whiteSpace=wrap;html=1;container=1;dropTarget=0;collapsible=0;recursiveResize=0;outlineConnect=0;portConstraint=eastwest;newEdgeStyle={&quot;curved&quot;:0,&quot;rounded&quot;:0};participant=umlActor;" parent="1" vertex="1">
          <mxGeometry x="160" y="-1000" width="20" height="880" as="geometry" />
        </mxCell>
        <mxCell id="jfZjnB6iYqrmCCpAlr42-3" value="Booking and Payment Management&amp;nbsp;" style="text;html=1;strokeColor=none;fillColor=none;align=center;verticalAlign=middle;whiteSpace=wrap;rounded=0;" parent="1" vertex="1">
          <mxGeometry x="140" y="-1080" width="230" height="30" as="geometry" />
        </mxCell>
        <mxCell id="jfZjnB6iYqrmCCpAlr42-4" value="Renter" style="text;html=1;strokeColor=none;fillColor=none;align=center;verticalAlign=middle;whiteSpace=wrap;rounded=0;" parent="1" vertex="1">
          <mxGeometry x="140" y="-1030" width="60" height="30" as="geometry" />
        </mxCell>
        <mxCell id="jfZjnB6iYqrmCCpAlr42-7" value="" style="shape=umlLifeline;perimeter=lifelinePerimeter;whiteSpace=wrap;html=1;container=1;dropTarget=0;collapsible=0;recursiveResize=0;outlineConnect=0;portConstraint=eastwest;newEdgeStyle={&quot;curved&quot;:0,&quot;rounded&quot;:0};participant=umlBoundary;" parent="1" vertex="1">
          <mxGeometry x="280" y="-1000" width="50" height="880" as="geometry" />
        </mxCell>
        <mxCell id="jfZjnB6iYqrmCCpAlr42-13" value="" style="html=1;points=[[0,0,0,0,5],[0,1,0,0,-5],[1,0,0,0,5],[1,1,0,0,-5]];perimeter=orthogonalPerimeter;outlineConnect=0;targetShapes=umlLifeline;portConstraint=eastwest;newEdgeStyle={&quot;curved&quot;:0,&quot;rounded&quot;:0};" parent="jfZjnB6iYqrmCCpAlr42-7" vertex="1">
          <mxGeometry x="20" y="80" width="10" height="600" as="geometry" />
        </mxCell>
        <mxCell id="jfZjnB6iYqrmCCpAlr42-8" value="" style="shape=umlLifeline;perimeter=lifelinePerimeter;whiteSpace=wrap;html=1;container=1;dropTarget=0;collapsible=0;recursiveResize=0;outlineConnect=0;portConstraint=eastwest;newEdgeStyle={&quot;curved&quot;:0,&quot;rounded&quot;:0};participant=umlControl;" parent="1" vertex="1">
          <mxGeometry x="480" y="-1000" width="40" height="880" as="geometry" />
        </mxCell>
        <mxCell id="jfZjnB6iYqrmCCpAlr42-17" value="" style="html=1;points=[[0,0,0,0,5],[0,1,0,0,-5],[1,0,0,0,5],[1,1,0,0,-5]];perimeter=orthogonalPerimeter;outlineConnect=0;targetShapes=umlLifeline;portConstraint=eastwest;newEdgeStyle={&quot;curved&quot;:0,&quot;rounded&quot;:0};" parent="jfZjnB6iYqrmCCpAlr42-8" vertex="1">
          <mxGeometry x="15" y="80" width="10" height="600" as="geometry" />
        </mxCell>
        <mxCell id="jfZjnB6iYqrmCCpAlr42-9" value="" style="shape=umlLifeline;perimeter=lifelinePerimeter;whiteSpace=wrap;html=1;container=1;dropTarget=0;collapsible=0;recursiveResize=0;outlineConnect=0;portConstraint=eastwest;newEdgeStyle={&quot;curved&quot;:0,&quot;rounded&quot;:0};participant=umlEntity;" parent="1" vertex="1">
          <mxGeometry x="720" y="-1000" width="40" height="880" as="geometry" />
        </mxCell>
        <mxCell id="jfZjnB6iYqrmCCpAlr42-41" value="" style="html=1;points=[[0,0,0,0,5],[0,1,0,0,-5],[1,0,0,0,5],[1,1,0,0,-5]];perimeter=orthogonalPerimeter;outlineConnect=0;targetShapes=umlLifeline;portConstraint=eastwest;newEdgeStyle={&quot;curved&quot;:0,&quot;rounded&quot;:0};" parent="jfZjnB6iYqrmCCpAlr42-9" vertex="1">
          <mxGeometry x="15" y="80" width="10" height="750" as="geometry" />
        </mxCell>
        <mxCell id="jfZjnB6iYqrmCCpAlr42-10" value="Booking UI" style="text;html=1;strokeColor=none;fillColor=none;align=center;verticalAlign=middle;whiteSpace=wrap;rounded=0;" parent="1" vertex="1">
          <mxGeometry x="270" y="-1030" width="70" height="30" as="geometry" />
        </mxCell>
        <mxCell id="jfZjnB6iYqrmCCpAlr42-11" value="&lt;br&gt;&lt;span style=&quot;color: rgb(0, 0, 0); font-family: Helvetica; font-size: 12px; font-style: normal; font-variant-ligatures: normal; font-variant-caps: normal; font-weight: 400; letter-spacing: normal; orphans: 2; text-align: center; text-indent: 0px; text-transform: none; widows: 2; word-spacing: 0px; -webkit-text-stroke-width: 0px; background-color: rgb(251, 251, 251); text-decoration-thickness: initial; text-decoration-style: initial; text-decoration-color: initial; float: none; display: inline !important;&quot;&gt;Booking Control&lt;/span&gt;&lt;br&gt;" style="text;html=1;strokeColor=none;fillColor=none;align=center;verticalAlign=middle;whiteSpace=wrap;rounded=0;" parent="1" vertex="1">
          <mxGeometry x="460" y="-1040" width="80" height="30" as="geometry" />
        </mxCell>
        <mxCell id="jfZjnB6iYqrmCCpAlr42-12" value="&lt;span style=&quot;color: rgb(0, 0, 0); font-family: Helvetica; font-size: 12px; font-style: normal; font-variant-ligatures: normal; font-variant-caps: normal; font-weight: 400; letter-spacing: normal; orphans: 2; text-align: center; text-indent: 0px; text-transform: none; widows: 2; word-spacing: 0px; -webkit-text-stroke-width: 0px; background-color: rgb(251, 251, 251); text-decoration-thickness: initial; text-decoration-style: initial; text-decoration-color: initial; float: none; display: inline !important;&quot;&gt;Booking DB&lt;/span&gt;" style="text;whiteSpace=wrap;html=1;" parent="1" vertex="1">
          <mxGeometry x="710" y="-1030" width="70" height="30" as="geometry" />
        </mxCell>
        <mxCell id="jfZjnB6iYqrmCCpAlr42-14" value="Vehicle details()&lt;span style=&quot;white-space: pre;&quot;&gt;&#x9;&lt;/span&gt;" style="html=1;verticalAlign=bottom;labelBackgroundColor=none;endArrow=open;endFill=0;rounded=0;" parent="1" edge="1" source="jfZjnB6iYqrmCCpAlr42-2">
          <mxGeometry width="160" relative="1" as="geometry">
            <mxPoint x="119.66666666666652" y="-920" as="sourcePoint" />
            <mxPoint x="300" y="-920" as="targetPoint" />
          </mxGeometry>
        </mxCell>
        <mxCell id="jfZjnB6iYqrmCCpAlr42-15" value="" style="shape=umlLifeline;perimeter=lifelinePerimeter;whiteSpace=wrap;html=1;container=1;dropTarget=0;collapsible=0;recursiveResize=0;outlineConnect=0;portConstraint=eastwest;newEdgeStyle={&quot;curved&quot;:0,&quot;rounded&quot;:0};participant=umlEntity;" parent="1" vertex="1">
          <mxGeometry x="650" y="-1000" width="40" height="880" as="geometry" />
        </mxCell>
        <mxCell id="jfZjnB6iYqrmCCpAlr42-23" value="" style="html=1;points=[[0,0,0,0,5],[0,1,0,0,-5],[1,0,0,0,5],[1,1,0,0,-5]];perimeter=orthogonalPerimeter;outlineConnect=0;targetShapes=umlLifeline;portConstraint=eastwest;newEdgeStyle={&quot;curved&quot;:0,&quot;rounded&quot;:0};" parent="jfZjnB6iYqrmCCpAlr42-15" vertex="1">
          <mxGeometry x="15" y="80" width="10" height="600" as="geometry" />
        </mxCell>
        <mxCell id="jfZjnB6iYqrmCCpAlr42-16" value="&lt;div style=&quot;text-align: center;&quot;&gt;&lt;span style=&quot;background-color: initial;&quot;&gt;Vehicle DB&lt;/span&gt;&lt;/div&gt;" style="text;whiteSpace=wrap;html=1;" parent="1" vertex="1">
          <mxGeometry x="640" y="-1030" width="70" height="30" as="geometry" />
        </mxCell>
        <mxCell id="jfZjnB6iYqrmCCpAlr42-19" value="" style="html=1;verticalAlign=bottom;labelBackgroundColor=none;endArrow=block;endFill=1;rounded=0;exitX=0;exitY=1;exitDx=0;exitDy=0;" parent="1" target="jfZjnB6iYqrmCCpAlr42-17" edge="1">
          <mxGeometry width="160" relative="1" as="geometry">
            <mxPoint x="310" y="-900" as="sourcePoint" />
            <mxPoint x="595" y="-900" as="targetPoint" />
          </mxGeometry>
        </mxCell>
        <mxCell id="jfZjnB6iYqrmCCpAlr42-21" value="Vehicle details()" style="text;html=1;strokeColor=none;fillColor=none;align=center;verticalAlign=middle;whiteSpace=wrap;rounded=0;" parent="1" vertex="1">
          <mxGeometry x="370" y="-925" width="90" height="30" as="geometry" />
        </mxCell>
        <mxCell id="jfZjnB6iYqrmCCpAlr42-24" value="" style="html=1;verticalAlign=bottom;labelBackgroundColor=none;endArrow=block;endFill=1;rounded=0;" parent="1" target="jfZjnB6iYqrmCCpAlr42-23" edge="1">
          <mxGeometry width="160" relative="1" as="geometry">
            <mxPoint x="505" y="-880.0000000000002" as="sourcePoint" />
            <mxPoint x="835" y="-880.0000000000002" as="targetPoint" />
          </mxGeometry>
        </mxCell>
        <mxCell id="jfZjnB6iYqrmCCpAlr42-25" value="Request Vehicle details()" style="text;html=1;strokeColor=none;fillColor=none;align=center;verticalAlign=middle;whiteSpace=wrap;rounded=0;" parent="1" vertex="1">
          <mxGeometry x="510" y="-909" width="160" height="30" as="geometry" />
        </mxCell>
        <mxCell id="jfZjnB6iYqrmCCpAlr42-27" value="Get Vehicle details" style="text;html=1;align=center;verticalAlign=middle;resizable=0;points=[];autosize=1;strokeColor=none;fillColor=none;" parent="1" vertex="1">
          <mxGeometry x="520" y="-864" width="120" height="30" as="geometry" />
        </mxCell>
        <mxCell id="jfZjnB6iYqrmCCpAlr42-28" value="" style="html=1;verticalAlign=bottom;labelBackgroundColor=none;endArrow=open;endFill=0;dashed=1;rounded=0;" parent="1" source="jfZjnB6iYqrmCCpAlr42-23" edge="1">
          <mxGeometry width="160" relative="1" as="geometry">
            <mxPoint x="835" y="-840.0000000000002" as="sourcePoint" />
            <mxPoint x="505" y="-840.0000000000002" as="targetPoint" />
          </mxGeometry>
        </mxCell>
        <mxCell id="jfZjnB6iYqrmCCpAlr42-29" value="Get Vehicle details" style="text;html=1;align=center;verticalAlign=middle;resizable=0;points=[];autosize=1;strokeColor=none;fillColor=none;" parent="1" vertex="1">
          <mxGeometry x="357" y="-864" width="120" height="30" as="geometry" />
        </mxCell>
        <mxCell id="jfZjnB6iYqrmCCpAlr42-30" value="" style="html=1;verticalAlign=bottom;labelBackgroundColor=none;endArrow=open;endFill=0;dashed=1;rounded=0;" parent="1" source="jfZjnB6iYqrmCCpAlr42-17" edge="1">
          <mxGeometry width="160" relative="1" as="geometry">
            <mxPoint x="595" y="-840" as="sourcePoint" />
            <mxPoint x="310" y="-840" as="targetPoint" />
          </mxGeometry>
        </mxCell>
        <mxCell id="jfZjnB6iYqrmCCpAlr42-31" value="Payment" style="html=1;verticalAlign=bottom;labelBackgroundColor=none;endArrow=open;endFill=0;rounded=0;" parent="1" source="jfZjnB6iYqrmCCpAlr42-2" target="jfZjnB6iYqrmCCpAlr42-13" edge="1">
          <mxGeometry x="-0.0018" width="160" relative="1" as="geometry">
            <mxPoint x="119.9966666666665" y="-560.29" as="sourcePoint" />
            <mxPoint x="300.33" y="-560.29" as="targetPoint" />
            <mxPoint as="offset" />
          </mxGeometry>
        </mxCell>
        <mxCell id="jfZjnB6iYqrmCCpAlr42-32" value="Place a booking Request" style="html=1;verticalAlign=bottom;labelBackgroundColor=none;endArrow=open;endFill=0;rounded=0;" parent="1" target="jfZjnB6iYqrmCCpAlr42-17" edge="1">
          <mxGeometry x="-0.0018" width="160" relative="1" as="geometry">
            <mxPoint x="309.9966666666665" y="-780" as="sourcePoint" />
            <mxPoint x="490.33" y="-780" as="targetPoint" />
            <mxPoint as="offset" />
          </mxGeometry>
        </mxCell>
        <mxCell id="jfZjnB6iYqrmCCpAlr42-33" value="alt" style="shape=umlFrame;whiteSpace=wrap;html=1;pointerEvents=0;recursiveResize=0;container=1;collapsible=0;width=50;" parent="1" vertex="1">
          <mxGeometry x="240" y="-760" width="880" height="160" as="geometry" />
        </mxCell>
        <mxCell id="jfZjnB6iYqrmCCpAlr42-35" value="[Owner Accept booking request]" style="text;html=1;strokeColor=none;fillColor=none;align=center;verticalAlign=middle;whiteSpace=wrap;rounded=0;" parent="jfZjnB6iYqrmCCpAlr42-33" vertex="1">
          <mxGeometry x="50" width="180" height="30" as="geometry" />
        </mxCell>
        <mxCell id="jfZjnB6iYqrmCCpAlr42-44" value="Booking Successful msg" style="html=1;verticalAlign=bottom;labelBackgroundColor=none;endArrow=open;endFill=0;rounded=0;" parent="jfZjnB6iYqrmCCpAlr42-33" source="jfZjnB6iYqrmCCpAlr42-17" edge="1">
          <mxGeometry x="-0.0018" width="160" relative="1" as="geometry">
            <mxPoint x="355" y="70" as="sourcePoint" />
            <mxPoint x="70" y="70" as="targetPoint" />
            <mxPoint as="offset" />
          </mxGeometry>
        </mxCell>
        <mxCell id="jfZjnB6iYqrmCCpAlr42-53" value="[Owner Reject booking request]" style="text;html=1;strokeColor=none;fillColor=none;align=center;verticalAlign=middle;whiteSpace=wrap;rounded=0;" parent="jfZjnB6iYqrmCCpAlr42-33" vertex="1">
          <mxGeometry x="50" y="80" width="180" height="30" as="geometry" />
        </mxCell>
        <mxCell id="jfZjnB6iYqrmCCpAlr42-36" value="" style="endArrow=none;dashed=1;html=1;dashPattern=1 3;strokeWidth=2;rounded=0;entryX=1.005;entryY=0.491;entryDx=0;entryDy=0;entryPerimeter=0;exitX=-0.004;exitY=0.503;exitDx=0;exitDy=0;exitPerimeter=0;" parent="1" source="jfZjnB6iYqrmCCpAlr42-33" target="jfZjnB6iYqrmCCpAlr42-33" edge="1">
          <mxGeometry width="50" height="50" relative="1" as="geometry">
            <mxPoint x="680" y="-770" as="sourcePoint" />
            <mxPoint x="730" y="-820" as="targetPoint" />
          </mxGeometry>
        </mxCell>
        <mxCell id="jfZjnB6iYqrmCCpAlr42-42" value="Place Request()" style="html=1;verticalAlign=bottom;labelBackgroundColor=none;endArrow=open;endFill=0;rounded=0;" parent="1" target="jfZjnB6iYqrmCCpAlr42-41" edge="1">
          <mxGeometry x="-0.0018" width="160" relative="1" as="geometry">
            <mxPoint x="505" y="-720" as="sourcePoint" />
            <mxPoint x="955" y="-720" as="targetPoint" />
            <mxPoint as="offset" />
          </mxGeometry>
        </mxCell>
        <mxCell id="jfZjnB6iYqrmCCpAlr42-43" value="Booking Fail msg" style="html=1;verticalAlign=bottom;labelBackgroundColor=none;endArrow=open;endFill=0;rounded=0;" parent="1" source="jfZjnB6iYqrmCCpAlr42-17" target="jfZjnB6iYqrmCCpAlr42-13" edge="1">
          <mxGeometry x="-0.0018" width="160" relative="1" as="geometry">
            <mxPoint x="615" y="-700" as="sourcePoint" />
            <mxPoint x="1054.9999999999998" y="-700" as="targetPoint" />
            <mxPoint as="offset" />
          </mxGeometry>
        </mxCell>
        <mxCell id="jfZjnB6iYqrmCCpAlr42-46" value="Place a booking Request" style="html=1;verticalAlign=bottom;labelBackgroundColor=none;endArrow=open;endFill=0;rounded=0;" parent="1" edge="1" source="jfZjnB6iYqrmCCpAlr42-2">
          <mxGeometry x="-0.0018" width="160" relative="1" as="geometry">
            <mxPoint x="119.92857142857144" y="-864" as="sourcePoint" />
            <mxPoint x="300" y="-864" as="targetPoint" />
            <mxPoint as="offset" />
          </mxGeometry>
        </mxCell>
        <mxCell id="jfZjnB6iYqrmCCpAlr42-47" value="Payment" style="html=1;verticalAlign=bottom;labelBackgroundColor=none;endArrow=open;endFill=0;rounded=0;" parent="1" edge="1">
          <mxGeometry x="-0.0018" width="160" relative="1" as="geometry">
            <mxPoint x="310" y="-540" as="sourcePoint" />
            <mxPoint x="495" y="-540" as="targetPoint" />
            <mxPoint as="offset" />
          </mxGeometry>
        </mxCell>
        <mxCell id="jfZjnB6iYqrmCCpAlr42-55" value="" style="shape=umlLifeline;perimeter=lifelinePerimeter;whiteSpace=wrap;html=1;container=1;dropTarget=0;collapsible=0;recursiveResize=0;outlineConnect=0;portConstraint=eastwest;newEdgeStyle={&quot;curved&quot;:0,&quot;rounded&quot;:0};participant=umlBoundary;" parent="1" vertex="1">
          <mxGeometry x="830" y="-1000" width="50" height="880" as="geometry" />
        </mxCell>
        <mxCell id="jfZjnB6iYqrmCCpAlr42-61" value="" style="html=1;points=[[0,0,0,0,5],[0,1,0,0,-5],[1,0,0,0,5],[1,1,0,0,-5]];perimeter=orthogonalPerimeter;outlineConnect=0;targetShapes=umlLifeline;portConstraint=eastwest;newEdgeStyle={&quot;curved&quot;:0,&quot;rounded&quot;:0};" parent="jfZjnB6iYqrmCCpAlr42-55" vertex="1">
          <mxGeometry x="20" y="80" width="10" height="740" as="geometry" />
        </mxCell>
        <mxCell id="jfZjnB6iYqrmCCpAlr42-56" value="&lt;div style=&quot;text-align: center;&quot;&gt;&lt;span style=&quot;background-color: initial;&quot;&gt;Payment UI&lt;/span&gt;&lt;/div&gt;" style="text;whiteSpace=wrap;html=1;" parent="1" vertex="1">
          <mxGeometry x="824" y="-1030" width="70" height="30" as="geometry" />
        </mxCell>
        <mxCell id="jfZjnB6iYqrmCCpAlr42-57" value="" style="shape=umlLifeline;perimeter=lifelinePerimeter;whiteSpace=wrap;html=1;container=1;dropTarget=0;collapsible=0;recursiveResize=0;outlineConnect=0;portConstraint=eastwest;newEdgeStyle={&quot;curved&quot;:0,&quot;rounded&quot;:0};participant=umlControl;" parent="1" vertex="1">
          <mxGeometry x="940" y="-1000" width="40" height="880" as="geometry" />
        </mxCell>
        <mxCell id="jfZjnB6iYqrmCCpAlr42-63" value="" style="html=1;points=[[0,0,0,0,5],[0,1,0,0,-5],[1,0,0,0,5],[1,1,0,0,-5]];perimeter=orthogonalPerimeter;outlineConnect=0;targetShapes=umlLifeline;portConstraint=eastwest;newEdgeStyle={&quot;curved&quot;:0,&quot;rounded&quot;:0};" parent="jfZjnB6iYqrmCCpAlr42-57" vertex="1">
          <mxGeometry x="15" y="80" width="10" height="740" as="geometry" />
        </mxCell>
        <mxCell id="jfZjnB6iYqrmCCpAlr42-70" value="" style="html=1;points=[[0,0,0,0,5],[0,1,0,0,-5],[1,0,0,0,5],[1,1,0,0,-5]];perimeter=orthogonalPerimeter;outlineConnect=0;targetShapes=umlLifeline;portConstraint=eastwest;newEdgeStyle={&quot;curved&quot;:0,&quot;rounded&quot;:0};" parent="jfZjnB6iYqrmCCpAlr42-57" vertex="1">
          <mxGeometry x="25" y="560" width="10" height="80" as="geometry" />
        </mxCell>
        <mxCell id="jfZjnB6iYqrmCCpAlr42-58" value="" style="shape=umlLifeline;perimeter=lifelinePerimeter;whiteSpace=wrap;html=1;container=1;dropTarget=0;collapsible=0;recursiveResize=0;outlineConnect=0;portConstraint=eastwest;newEdgeStyle={&quot;curved&quot;:0,&quot;rounded&quot;:0};participant=umlEntity;" parent="1" vertex="1">
          <mxGeometry x="1060" y="-1000" width="40" height="880" as="geometry" />
        </mxCell>
        <mxCell id="jfZjnB6iYqrmCCpAlr42-64" value="" style="html=1;points=[[0,0,0,0,5],[0,1,0,0,-5],[1,0,0,0,5],[1,1,0,0,-5]];perimeter=orthogonalPerimeter;outlineConnect=0;targetShapes=umlLifeline;portConstraint=eastwest;newEdgeStyle={&quot;curved&quot;:0,&quot;rounded&quot;:0};" parent="jfZjnB6iYqrmCCpAlr42-58" vertex="1">
          <mxGeometry x="15" y="105" width="10" height="715" as="geometry" />
        </mxCell>
        <mxCell id="jfZjnB6iYqrmCCpAlr42-59" value="&lt;div style=&quot;text-align: center;&quot;&gt;&lt;span style=&quot;background-color: initial;&quot;&gt;Payment Control&lt;/span&gt;&lt;/div&gt;" style="text;whiteSpace=wrap;html=1;" parent="1" vertex="1">
          <mxGeometry x="925" y="-1030" width="70" height="30" as="geometry" />
        </mxCell>
        <mxCell id="jfZjnB6iYqrmCCpAlr42-60" value="&lt;div style=&quot;text-align: center;&quot;&gt;&lt;span style=&quot;background-color: initial;&quot;&gt;Payment Db&lt;/span&gt;&lt;/div&gt;" style="text;whiteSpace=wrap;html=1;" parent="1" vertex="1">
          <mxGeometry x="1045" y="-1030" width="70" height="30" as="geometry" />
        </mxCell>
        <mxCell id="jfZjnB6iYqrmCCpAlr42-62" value="Payment" style="html=1;verticalAlign=bottom;labelBackgroundColor=none;endArrow=open;endFill=0;rounded=0;" parent="1" target="jfZjnB6iYqrmCCpAlr42-61" edge="1">
          <mxGeometry x="-0.0018" width="160" relative="1" as="geometry">
            <mxPoint x="505.2499999999998" y="-520" as="sourcePoint" />
            <mxPoint x="854.75" y="-520" as="targetPoint" />
            <mxPoint as="offset" />
          </mxGeometry>
        </mxCell>
        <mxCell id="jfZjnB6iYqrmCCpAlr42-65" value="Payment" style="html=1;verticalAlign=bottom;labelBackgroundColor=none;endArrow=open;endFill=0;rounded=0;" parent="1" edge="1">
          <mxGeometry x="-0.0018" width="160" relative="1" as="geometry">
            <mxPoint x="860" y="-471.0000000000001" as="sourcePoint" />
            <mxPoint x="955" y="-471.0000000000001" as="targetPoint" />
            <mxPoint as="offset" />
          </mxGeometry>
        </mxCell>
        <mxCell id="jfZjnB6iYqrmCCpAlr42-69" value="Check Payment" style="html=1;verticalAlign=bottom;labelBackgroundColor=none;endArrow=open;endFill=0;rounded=0;" parent="1" source="jfZjnB6iYqrmCCpAlr42-63" edge="1">
          <mxGeometry x="-0.0018" width="160" relative="1" as="geometry">
            <mxPoint x="965" y="-461.0000000000001" as="sourcePoint" />
            <mxPoint x="975" y="-400" as="targetPoint" />
            <mxPoint as="offset" />
            <Array as="points">
              <mxPoint x="1020" y="-460" />
              <mxPoint x="1020" y="-400" />
            </Array>
          </mxGeometry>
        </mxCell>
        <mxCell id="jfZjnB6iYqrmCCpAlr42-71" value="alt" style="shape=umlFrame;whiteSpace=wrap;html=1;pointerEvents=0;recursiveResize=0;container=1;collapsible=0;width=50;" parent="1" vertex="1">
          <mxGeometry x="810" y="-350" width="310" height="160" as="geometry" />
        </mxCell>
        <mxCell id="jfZjnB6iYqrmCCpAlr42-72" value="[if payment success]" style="text;html=1;strokeColor=none;fillColor=none;align=center;verticalAlign=middle;whiteSpace=wrap;rounded=0;" parent="jfZjnB6iYqrmCCpAlr42-71" vertex="1">
          <mxGeometry x="20" width="180" height="30" as="geometry" />
        </mxCell>
        <mxCell id="jfZjnB6iYqrmCCpAlr42-74" value="[if payment fail]" style="text;html=1;strokeColor=none;fillColor=none;align=center;verticalAlign=middle;whiteSpace=wrap;rounded=0;" parent="jfZjnB6iYqrmCCpAlr42-71" vertex="1">
          <mxGeometry x="10" y="80" width="180" height="30" as="geometry" />
        </mxCell>
        <mxCell id="jfZjnB6iYqrmCCpAlr42-75" value="" style="endArrow=none;dashed=1;html=1;dashPattern=1 3;strokeWidth=2;rounded=0;entryX=1.002;entryY=0.495;entryDx=0;entryDy=0;entryPerimeter=0;exitX=-0.004;exitY=0.503;exitDx=0;exitDy=0;exitPerimeter=0;" parent="jfZjnB6iYqrmCCpAlr42-71" edge="1" target="jfZjnB6iYqrmCCpAlr42-71">
          <mxGeometry width="50" height="50" relative="1" as="geometry">
            <mxPoint x="2" y="80.5" as="sourcePoint" />
            <mxPoint x="890" y="79.5" as="targetPoint" />
          </mxGeometry>
        </mxCell>
        <mxCell id="jfZjnB6iYqrmCCpAlr42-73" value="update database" style="html=1;verticalAlign=bottom;labelBackgroundColor=none;endArrow=open;endFill=0;rounded=0;" parent="1" source="jfZjnB6iYqrmCCpAlr42-63" edge="1">
          <mxGeometry x="-0.0019" width="160" relative="1" as="geometry">
            <mxPoint x="860" y="-290.0000000000001" as="sourcePoint" />
            <mxPoint x="1075.0000000000002" y="-290.0000000000001" as="targetPoint" />
            <mxPoint as="offset" />
          </mxGeometry>
        </mxCell>
        <mxCell id="jfZjnB6iYqrmCCpAlr42-76" value="display payment fail msg" style="html=1;verticalAlign=bottom;labelBackgroundColor=none;endArrow=open;endFill=0;rounded=0;" parent="1" edge="1">
          <mxGeometry x="-0.0019" width="160" relative="1" as="geometry">
            <mxPoint x="954.9999999999998" y="-220" as="sourcePoint" />
            <mxPoint x="859.9999999999998" y="-220" as="targetPoint" />
            <mxPoint as="offset" />
          </mxGeometry>
        </mxCell>
      </root>
    </mxGraphModel>
  </diagram>
</mxfile>
